<svg width="543" height="669" viewBox="0 0 543 669" fill="none" xmlns="http://www.w3.org/2000/svg">
<rect y="35" width="543" height="634" rx="15" fill="url(#paint0_linear_55_2263)"/>
<path d="M494 10V115.185C494 118.537 492.32 121.666 489.527 123.519L433.682 160.551C430.499 162.662 426.392 162.775 423.098 160.844L359.312 123.45C356.25 121.655 354.369 118.372 354.369 114.823V35.4925H305L354.369 0H484C489.523 0 494 4.47715 494 10Z" fill="#1F3C88"/>
<path d="M392.872 58.348C391.016 58.348 389.363 58.029 387.913 57.391C386.471 56.7447 385.332 55.8581 384.495 54.7312C383.667 53.596 383.24 52.2868 383.215 50.8036H388.634C388.667 51.4251 388.87 51.9719 389.243 52.4442C389.624 52.9083 390.13 53.2687 390.759 53.5256C391.389 53.7824 392.098 53.9109 392.885 53.9109C393.705 53.9109 394.43 53.7659 395.06 53.4759C395.69 53.1858 396.183 52.784 396.539 52.2702C396.895 51.7565 397.073 51.1641 397.073 50.4929C397.073 49.8134 396.883 49.2127 396.502 48.6907C396.129 48.1604 395.59 47.7461 394.886 47.4478C394.19 47.1495 393.361 47.0004 392.4 47.0004H390.026V43.0479H392.4C393.212 43.0479 393.929 42.9071 394.55 42.6254C395.18 42.3436 395.669 41.9542 396.017 41.457C396.365 40.9516 396.539 40.3633 396.539 39.6921C396.539 39.0541 396.386 38.4948 396.079 38.0142C395.781 37.5253 395.358 37.1442 394.811 36.8707C394.273 36.5973 393.643 36.4606 392.922 36.4606C392.193 36.4606 391.526 36.5932 390.921 36.8583C390.316 37.1152 389.831 37.4839 389.467 37.9645C389.102 38.4451 388.907 39.0085 388.883 39.6548H383.725C383.749 38.1882 384.168 36.8956 384.98 35.777C385.792 34.6584 386.886 33.7842 388.261 33.1545C389.645 32.5165 391.207 32.1974 392.947 32.1974C394.704 32.1974 396.241 32.5165 397.558 33.1545C398.876 33.7925 399.899 34.6542 400.628 35.7397C401.365 36.8169 401.73 38.0266 401.722 39.369C401.73 40.7942 401.287 41.9832 400.392 42.9361C399.505 43.889 398.349 44.4938 396.924 44.7507V44.9496C398.797 45.1899 400.222 45.8403 401.2 46.9009C402.186 47.9532 402.675 49.2707 402.666 50.8533C402.675 52.3034 402.256 53.5919 401.411 54.7188C400.574 55.8456 399.418 56.7322 397.943 57.3786C396.468 58.0249 394.778 58.348 392.872 58.348ZM416.515 58.5593C414.378 58.551 412.538 58.0249 410.997 56.9808C409.464 55.9368 408.283 54.4246 407.455 52.4442C406.634 50.4639 406.228 48.0817 406.237 45.2976C406.237 42.5218 406.647 40.1561 407.467 38.2006C408.296 36.2451 409.476 34.7578 411.009 33.7386C412.551 32.7112 414.386 32.1974 416.515 32.1974C418.645 32.1974 420.476 32.7112 422.009 33.7386C423.55 34.7661 424.735 36.2576 425.564 38.2131C426.392 40.1603 426.802 42.5218 426.794 45.2976C426.794 48.09 426.38 50.4763 425.551 52.4567C424.731 54.437 423.554 55.9492 422.021 56.9933C420.488 58.0373 418.653 58.5593 416.515 58.5593ZM416.515 54.0973C417.974 54.0973 419.138 53.364 420.008 51.8974C420.878 50.4308 421.309 48.2308 421.301 45.2976C421.301 43.367 421.102 41.7595 420.704 40.4751C420.314 39.1908 419.759 38.2255 419.038 37.5792C418.326 36.9329 417.485 36.6097 416.515 36.6097C415.065 36.6097 413.905 37.3348 413.035 38.7848C412.165 40.2348 411.726 42.4058 411.718 45.2976C411.718 47.2531 411.912 48.8854 412.302 50.1946C412.7 51.4955 413.259 52.4732 413.98 53.1278C414.701 53.7741 415.546 54.0973 416.515 54.0973ZM440.612 58.5593C438.474 58.551 436.635 58.0249 435.094 56.9808C433.561 55.9368 432.38 54.4246 431.551 52.4442C430.731 50.4639 430.325 48.0817 430.333 45.2976C430.333 42.5218 430.743 40.1561 431.564 38.2006C432.392 36.2451 433.573 34.7578 435.106 33.7386C436.647 32.7112 438.483 32.1974 440.612 32.1974C442.742 32.1974 444.573 32.7112 446.106 33.7386C447.647 34.7661 448.832 36.2576 449.66 38.2131C450.489 40.1603 450.899 42.5218 450.891 45.2976C450.891 48.09 450.477 50.4763 449.648 52.4567C448.828 54.437 447.651 55.9492 446.118 56.9933C444.585 58.0373 442.75 58.5593 440.612 58.5593ZM440.612 54.0973C442.07 54.0973 443.235 53.364 444.105 51.8974C444.975 50.4308 445.405 48.2308 445.397 45.2976C445.397 43.367 445.198 41.7595 444.801 40.4751C444.411 39.1908 443.856 38.2255 443.135 37.5792C442.423 36.9329 441.581 36.6097 440.612 36.6097C439.162 36.6097 438.002 37.3348 437.132 38.7848C436.262 40.2348 435.823 42.4058 435.814 45.2976C435.814 47.2531 436.009 48.8854 436.399 50.1946C436.796 51.4955 437.356 52.4732 438.077 53.1278C438.797 53.7741 439.643 54.0973 440.612 54.0973ZM463.279 61.1818V29.3636H465.318V61.1818H463.279ZM468.686 39.8661C468.587 38.8635 468.16 38.0846 467.406 37.5295C466.652 36.9743 465.628 36.6967 464.336 36.6967C463.458 36.6967 462.716 36.821 462.111 37.0696C461.506 37.3099 461.042 37.6455 460.719 38.0763C460.404 38.5072 460.247 38.9961 460.247 39.543C460.23 39.9987 460.325 40.3964 460.533 40.7362C460.748 41.0759 461.042 41.37 461.415 41.6186C461.788 41.8589 462.219 42.0702 462.708 42.2525C463.197 42.4265 463.719 42.5756 464.274 42.6999L466.561 43.2468C467.671 43.4954 468.69 43.8268 469.618 44.2411C470.546 44.6554 471.35 45.165 472.029 45.7699C472.709 46.3748 473.235 47.0874 473.608 47.9077C473.989 48.728 474.184 49.6684 474.192 50.729C474.184 52.2868 473.786 53.6374 472.999 54.7809C472.22 55.9161 471.093 56.7985 469.618 57.4283C468.152 58.0497 466.382 58.3604 464.311 58.3604C462.256 58.3604 460.466 58.0456 458.942 57.4158C457.425 56.7861 456.24 55.8539 455.387 54.6193C454.542 53.3764 454.099 51.8394 454.057 50.0082H459.265C459.323 50.8616 459.567 51.5742 459.998 52.146C460.437 52.7094 461.021 53.1361 461.751 53.4261C462.488 53.7079 463.321 53.8487 464.249 53.8487C465.16 53.8487 465.952 53.7161 466.623 53.451C467.302 53.1858 467.828 52.8171 468.201 52.3448C468.574 51.8725 468.761 51.3298 468.761 50.7166C468.761 50.1449 468.591 49.6643 468.251 49.2749C467.92 48.8854 467.431 48.554 466.784 48.2805C466.146 48.0071 465.363 47.7585 464.435 47.5348L461.664 46.8388C459.518 46.3168 457.823 45.5006 456.58 44.3903C455.337 43.2799 454.72 41.7843 454.728 39.9034C454.72 38.3622 455.13 37.0157 455.959 35.864C456.796 34.7122 457.943 33.8132 459.402 33.1669C460.86 32.5206 462.517 32.1974 464.373 32.1974C466.262 32.1974 467.911 32.5206 469.32 33.1669C470.737 33.8132 471.839 34.7122 472.626 35.864C473.413 37.0157 473.819 38.3498 473.844 39.8661H468.686Z" fill="#FBF8F3"/>
<path d="M384.048 113.909V95.9091H385.991V97.9886H386.23C386.377 97.7614 386.582 97.4716 386.843 97.1193C387.11 96.7614 387.491 96.4432 387.985 96.1648C388.485 95.8807 389.162 95.7386 390.014 95.7386C391.116 95.7386 392.088 96.0142 392.929 96.5653C393.77 97.1165 394.426 97.8977 394.897 98.9091C395.369 99.9205 395.605 101.114 395.605 102.489C395.605 103.875 395.369 105.077 394.897 106.094C394.426 107.105 393.772 107.889 392.937 108.446C392.102 108.997 391.139 109.273 390.048 109.273C389.207 109.273 388.534 109.134 388.028 108.855C387.522 108.571 387.133 108.25 386.86 107.892C386.588 107.528 386.377 107.227 386.23 106.989H386.059V113.909H384.048ZM386.025 102.455C386.025 103.443 386.17 104.315 386.46 105.071C386.75 105.821 387.173 106.409 387.73 106.835C388.287 107.256 388.968 107.466 389.775 107.466C390.616 107.466 391.318 107.244 391.88 106.801C392.449 106.352 392.875 105.75 393.159 104.994C393.449 104.233 393.593 103.386 393.593 102.455C393.593 101.534 393.451 100.705 393.167 99.9659C392.889 99.2216 392.466 98.6335 391.897 98.2017C391.335 97.7642 390.627 97.5455 389.775 97.5455C388.957 97.5455 388.27 97.7528 387.713 98.1676C387.156 98.5767 386.735 99.1506 386.451 99.8892C386.167 100.622 386.025 101.477 386.025 102.455ZM404.162 109.273C402.9 109.273 401.812 108.994 400.897 108.438C399.988 107.875 399.287 107.091 398.792 106.085C398.304 105.074 398.059 103.898 398.059 102.557C398.059 101.216 398.304 100.034 398.792 99.0114C399.287 97.983 399.974 97.1818 400.855 96.608C401.741 96.0284 402.775 95.7386 403.957 95.7386C404.639 95.7386 405.312 95.8523 405.977 96.0795C406.642 96.3068 407.247 96.6761 407.792 97.1875C408.338 97.6932 408.772 98.3636 409.096 99.1989C409.42 100.034 409.582 101.062 409.582 102.284V103.136H399.491V101.398H407.537C407.537 100.659 407.389 100 407.093 99.4205C406.804 98.8409 406.389 98.3835 405.849 98.0483C405.315 97.7131 404.684 97.5455 403.957 97.5455C403.156 97.5455 402.463 97.7443 401.877 98.142C401.298 98.5341 400.852 99.0455 400.539 99.6761C400.227 100.307 400.071 100.983 400.071 101.705V102.864C400.071 103.852 400.241 104.69 400.582 105.378C400.929 106.06 401.409 106.58 402.022 106.938C402.636 107.29 403.349 107.466 404.162 107.466C404.69 107.466 405.167 107.392 405.593 107.244C406.025 107.091 406.397 106.864 406.71 106.562C407.022 106.256 407.264 105.875 407.434 105.42L409.377 105.966C409.173 106.625 408.829 107.205 408.346 107.705C407.863 108.199 407.267 108.585 406.556 108.864C405.846 109.136 405.048 109.273 404.162 109.273ZM412.642 109V95.9091H414.585V97.8864H414.721C414.96 97.2386 415.392 96.7131 416.017 96.3097C416.642 95.9062 417.346 95.7045 418.13 95.7045C418.278 95.7045 418.463 95.7074 418.684 95.7131C418.906 95.7187 419.074 95.7273 419.187 95.7386V97.7841C419.119 97.767 418.963 97.7415 418.718 97.7074C418.48 97.6676 418.227 97.6477 417.96 97.6477C417.324 97.6477 416.755 97.7812 416.255 98.0483C415.761 98.3097 415.369 98.6733 415.079 99.1392C414.795 99.5994 414.653 100.125 414.653 100.716V109H412.642ZM429.617 113.909C429.276 113.909 428.972 113.881 428.705 113.824C428.438 113.773 428.253 113.722 428.151 113.67L428.662 111.898C429.151 112.023 429.583 112.068 429.958 112.034C430.333 112 430.665 111.832 430.955 111.531C431.25 111.236 431.52 110.756 431.765 110.091L432.14 109.068L427.299 95.9091H429.48L433.094 106.341H433.23L436.844 95.9091H439.026L433.469 110.909C433.219 111.585 432.909 112.145 432.54 112.588C432.171 113.037 431.742 113.369 431.253 113.585C430.77 113.801 430.225 113.909 429.617 113.909ZM446.701 109.273C445.439 109.273 444.351 108.994 443.436 108.438C442.527 107.875 441.826 107.091 441.331 106.085C440.843 105.074 440.598 103.898 440.598 102.557C440.598 101.216 440.843 100.034 441.331 99.0114C441.826 97.983 442.513 97.1818 443.394 96.608C444.28 96.0284 445.314 95.7386 446.496 95.7386C447.178 95.7386 447.851 95.8523 448.516 96.0795C449.181 96.3068 449.786 96.6761 450.331 97.1875C450.877 97.6932 451.311 98.3636 451.635 99.1989C451.959 100.034 452.121 101.062 452.121 102.284V103.136H442.03V101.398H450.076C450.076 100.659 449.928 100 449.632 99.4205C449.343 98.8409 448.928 98.3835 448.388 98.0483C447.854 97.7131 447.223 97.5455 446.496 97.5455C445.695 97.5455 445.002 97.7443 444.417 98.142C443.837 98.5341 443.391 99.0455 443.078 99.6761C442.766 100.307 442.61 100.983 442.61 101.705V102.864C442.61 103.852 442.78 104.69 443.121 105.378C443.468 106.06 443.948 106.58 444.561 106.938C445.175 107.29 445.888 107.466 446.701 107.466C447.229 107.466 447.706 107.392 448.132 107.244C448.564 107.091 448.936 106.864 449.249 106.562C449.561 106.256 449.803 105.875 449.973 105.42L451.917 105.966C451.712 106.625 451.368 107.205 450.885 107.705C450.402 108.199 449.806 108.585 449.096 108.864C448.385 109.136 447.587 109.273 446.701 109.273ZM459.033 109.307C458.203 109.307 457.451 109.151 456.775 108.838C456.098 108.52 455.561 108.062 455.164 107.466C454.766 106.864 454.567 106.136 454.567 105.284C454.567 104.534 454.715 103.926 455.01 103.46C455.306 102.989 455.701 102.619 456.195 102.352C456.689 102.085 457.235 101.886 457.831 101.756C458.434 101.619 459.039 101.511 459.647 101.432C460.442 101.33 461.087 101.253 461.581 101.202C462.081 101.145 462.445 101.051 462.672 100.92C462.905 100.79 463.022 100.562 463.022 100.239V100.17C463.022 99.3295 462.792 98.6761 462.331 98.2102C461.877 97.7443 461.186 97.5114 460.26 97.5114C459.3 97.5114 458.547 97.7216 458.002 98.142C457.456 98.5625 457.073 99.0114 456.851 99.4886L454.942 98.8068C455.283 98.0114 455.738 97.392 456.306 96.9489C456.88 96.5 457.505 96.1875 458.181 96.0114C458.863 95.8295 459.533 95.7386 460.192 95.7386C460.613 95.7386 461.096 95.7898 461.641 95.892C462.192 95.9886 462.723 96.1903 463.235 96.4972C463.752 96.804 464.181 97.267 464.522 97.8864C464.863 98.5057 465.033 99.3352 465.033 100.375V109H463.022V107.227H462.919C462.783 107.511 462.556 107.815 462.238 108.139C461.919 108.463 461.496 108.739 460.968 108.966C460.439 109.193 459.794 109.307 459.033 109.307ZM459.34 107.5C460.135 107.5 460.806 107.344 461.351 107.031C461.902 106.719 462.317 106.315 462.596 105.821C462.88 105.327 463.022 104.807 463.022 104.261V102.42C462.936 102.523 462.749 102.616 462.459 102.702C462.175 102.781 461.846 102.852 461.471 102.915C461.101 102.972 460.74 103.023 460.388 103.068C460.042 103.108 459.76 103.142 459.544 103.17C459.022 103.239 458.533 103.349 458.078 103.503C457.63 103.651 457.266 103.875 456.988 104.176C456.715 104.472 456.578 104.875 456.578 105.386C456.578 106.085 456.837 106.614 457.354 106.972C457.877 107.324 458.539 107.5 459.34 107.5ZM468.704 109V95.9091H470.647V97.8864H470.784C471.022 97.2386 471.454 96.7131 472.079 96.3097C472.704 95.9062 473.409 95.7045 474.193 95.7045C474.341 95.7045 474.525 95.7074 474.747 95.7131C474.968 95.7187 475.136 95.7273 475.25 95.7386V97.7841C475.181 97.767 475.025 97.7415 474.781 97.7074C474.542 97.6676 474.289 97.6477 474.022 97.6477C473.386 97.6477 472.818 97.7812 472.318 98.0483C471.824 98.3097 471.431 98.6733 471.142 99.1392C470.858 99.5994 470.716 100.125 470.716 100.716V109H468.704Z" fill="#FBF8F3"/>
<defs>
<linearGradient id="paint0_linear_55_2263" x1="271.5" y1="35" x2="271.5" y2="669" gradientUnits="userSpaceOnUse">
<stop stop-color="#CEDDEF"/>
<stop offset="1" stop-color="white" stop-opacity="0.3"/>
</linearGradient>
</defs>
</svg>
