<svg width="44" height="64" viewBox="0 0 44 64" fill="none" xmlns="http://www.w3.org/2000/svg">
<path d="M22 0C11.42 0 0 8.412 0 22C0 28.706 2.668 34.348 7.792 38.624C7.84521 38.6906 7.90709 38.7498 7.976 38.8C11.778 42.924 11.97 43.708 11.996 45.522C12.008 46.24 12.002 46.452 11.996 46.568L11.988 46.986C11.958 47.89 11.912 49.404 13.786 49.976L29.974 53.538C30.1023 53.5661 30.2349 53.5687 30.3642 53.5455C30.4935 53.5224 30.6169 53.474 30.7275 53.4032C30.8381 53.3323 30.9337 53.2404 31.0087 53.1326C31.0838 53.0248 31.1369 52.9033 31.165 52.775C31.1931 52.6467 31.1957 52.5141 31.1725 52.3848C31.1494 52.2555 31.101 52.1321 31.0302 52.0215C30.9593 51.9109 30.8674 51.8153 30.7596 51.7403C30.6518 51.6652 30.5303 51.6121 30.402 51.584L14.292 48.042C13.982 47.948 13.956 47.94 13.984 47.046L13.99 46.664C13.99 46.664 14.01 46.508 13.994 45.492C13.956 42.954 13.404 41.728 9.376 37.374C9.29917 37.2791 9.20563 37.1992 9.1 37.138C4.388 33.132 2 28.04 2 22C2 9.646 12.38 2 22 2C31.832 2 42 9.482 42 22C42 29.956 38.144 34.342 34.964 37.102C34.8531 37.1554 34.7533 37.2293 34.67 37.32C30.596 41.728 30.044 42.954 30.006 45.492V45.698L30.004 45.768C29.998 45.92 29.976 46.004 29.978 46.036C29.9 46.0242 29.822 46.0122 29.744 46L21.354 44.026C21.2261 43.9959 21.0935 43.9913 20.9638 44.0125C20.8342 44.0337 20.7099 44.0802 20.5982 44.1493C20.4865 44.2185 20.3895 44.309 20.3128 44.4157C20.236 44.5224 20.1811 44.6431 20.151 44.771C20.1209 44.8989 20.1163 45.0315 20.1375 45.1612C20.1587 45.2908 20.2052 45.4151 20.2744 45.5268C20.3435 45.6385 20.434 45.7355 20.5407 45.8122C20.6474 45.889 20.7681 45.9439 20.896 45.974L29.184 47.918C29.294 47.958 30.29 48.282 31.13 47.692C31.496 47.434 31.922 46.928 31.998 45.96L32.004 45.866L32.008 45.668L32.006 45.616L32.008 45.524C32.034 43.72 32.222 42.936 36.018 38.812C36.036 38.798 36.056 38.784 36.072 38.768C41.406 34.286 44 28.8 44 22C44 8.23 32.814 0 22 0ZM30 59C30.2269 59.0004 30.4472 58.9233 30.6243 58.7814C30.8014 58.6396 30.9248 58.4415 30.974 58.22C31.0033 58.0919 31.007 57.9594 30.9849 57.8299C30.9628 57.7004 30.9154 57.5766 30.8453 57.4655C30.7753 57.3543 30.684 57.2582 30.5767 57.1824C30.4694 57.1066 30.3482 57.0528 30.22 57.024L14.22 53.396C13.964 53.3442 13.6978 53.3946 13.4785 53.5364C13.2592 53.6782 13.104 53.9003 13.0463 54.155C12.9885 54.4098 13.0328 54.677 13.1695 54.8996C13.3062 55.1222 13.5246 55.2824 13.778 55.346L29.778 58.974C29.8507 58.9913 29.9252 59 30 59ZM15.218 59.108C15.088 59.0736 14.9524 59.0658 14.8193 59.085C14.6862 59.1043 14.5583 59.1502 14.4433 59.22C14.3284 59.2898 14.2287 59.382 14.1502 59.4912C14.0717 59.6005 14.0161 59.7244 13.9866 59.8556C13.9571 59.9868 13.9544 60.1226 13.9787 60.2549C14.0029 60.3872 14.0536 60.5133 14.1276 60.6255C14.2017 60.7378 14.2977 60.8339 14.4097 60.9082C14.5218 60.9825 14.6478 61.0335 14.78 61.058L27.78 63.974C27.91 64.0084 28.0456 64.0162 28.1787 63.997C28.3118 63.9777 28.4397 63.9318 28.5547 63.862C28.6696 63.7922 28.7693 63.7 28.8478 63.5908C28.9263 63.4815 28.9819 63.3576 29.0114 63.2264C29.0409 63.0952 29.0436 62.9594 29.0193 62.8271C28.9951 62.6948 28.9444 62.5687 28.8704 62.4565C28.7963 62.3442 28.7003 62.2481 28.5883 62.1738C28.4762 62.0995 28.3502 62.0485 28.218 62.024L15.218 59.108Z" fill="#3055D0"/>
</svg>
