<svg width="84" height="64" viewBox="0 0 84 64" fill="none" xmlns="http://www.w3.org/2000/svg">
<path d="M83.558 26.18C83.3405 25.9986 83.0599 25.9111 82.7778 25.9366C82.4958 25.9621 82.2354 26.0986 82.054 26.316L77.32 31.996C77.218 31.964 77.114 31.932 77 32H74.218L77.758 27.684C77.9334 27.4659 78.0162 27.1876 77.9885 26.909C77.9608 26.6304 77.8248 26.3739 77.6098 26.1946C77.3949 26.0153 77.1181 25.9275 76.8391 25.9503C76.5601 25.973 76.3011 26.1043 76.118 26.316L71.438 32H68.28L71.82 27.684C71.9954 27.4659 72.0782 27.1876 72.0505 26.909C72.0228 26.6304 71.8868 26.3739 71.6718 26.1946C71.4569 26.0153 71.1801 25.9275 70.9011 25.9503C70.6221 25.973 70.3631 26.1043 70.18 26.316L65.5 32H63.996C63.958 14.318 49.622 0 32 0C14.356 0 0 14.356 0 32C0 49.644 14.356 64 32 64C48.946 64 62.82 50.748 63.896 34H65.502L70.182 39.684C70.2714 39.7923 70.3813 39.8819 70.5055 39.9474C70.6298 40.013 70.7657 40.0533 70.9056 40.0659C71.0455 40.0786 71.1865 40.0633 71.3204 40.0211C71.4544 39.9789 71.5786 39.9106 71.686 39.82C71.7941 39.7305 71.8835 39.6204 71.9489 39.4962C72.0143 39.372 72.0544 39.2361 72.0671 39.0963C72.0797 38.9565 72.0646 38.8156 72.0225 38.6817C71.9805 38.5477 71.9123 38.4235 71.822 38.316L68.28 34H71.438L76.118 39.684C76.2074 39.7923 76.3173 39.8819 76.4416 39.9474C76.5658 40.013 76.7017 40.0533 76.8416 40.0659C76.9815 40.0786 77.1225 40.0633 77.2564 40.0211C77.3904 39.9789 77.5146 39.9106 77.622 39.82C77.7301 39.7305 77.8195 39.6204 77.8848 39.4962C77.9502 39.372 77.9904 39.2361 78.0031 39.0963C78.0157 38.9565 78.0006 38.8156 77.9585 38.6817C77.9165 38.5477 77.8483 38.4235 77.758 38.316L74.218 34H77C77.114 34.068 77.218 34.036 77.322 34.004L82.056 39.684C82.1454 39.7923 82.2553 39.8819 82.3795 39.9474C82.5038 40.013 82.6397 40.0533 82.7796 40.0659C82.9195 40.0786 83.0605 40.0633 83.1944 40.0211C83.3284 39.9789 83.4526 39.9106 83.56 39.82C83.6681 39.7305 83.7575 39.6204 83.8229 39.4962C83.8883 39.372 83.9284 39.2361 83.9411 39.0963C83.9537 38.9565 83.9386 38.8156 83.8965 38.6817C83.8544 38.5477 83.7863 38.4235 83.696 38.316L79.266 33L83.696 27.684C83.7859 27.5763 83.8537 27.4519 83.8955 27.3179C83.9372 27.184 83.9521 27.0431 83.9393 26.9033C83.9265 26.7636 83.8862 26.6278 83.8208 26.5037C83.7553 26.3795 83.666 26.2695 83.558 26.18ZM32 62C15.458 62 2 48.542 2 32C2 15.458 15.458 2 32 2C48.52 2 61.958 15.42 61.996 32H55.996C55.96 18.73 45.212 8 32 8C18.766 8 8 18.766 8 32C8 45.234 18.766 56 32 56C44.536 56 54.842 46.336 55.896 34H61.896C60.826 49.646 47.844 62 32 62ZM47.996 32C47.96 23.142 40.8 16 32 16C23.178 16 16 23.178 16 32C16 40.822 23.178 48 32 48C40.12 48 46.832 41.914 47.85 34H53.894C52.848 45.232 43.432 54 32 54C19.87 54 10 44.13 10 32C10 19.87 19.87 10 32 10C44.108 10 53.96 19.832 53.996 32H47.996ZM39.994 32C39.956 27.552 36.39 24 32 24C27.588 24 24 27.588 24 32C24 36.412 27.588 40 32 40C35.692 40 38.776 37.474 39.694 34H45.83C44.824 40.808 39.014 46 32 46C24.282 46 18 39.718 18 32C18 24.282 24.282 18 32 18C39.696 18 45.96 24.244 45.996 32H39.994ZM33 34H37.61C36.764 36.356 34.578 38 32 38C28.692 38 26 35.308 26 32C26 28.692 28.692 26 32 26C35.286 26 37.956 28.656 37.994 32H33C32.41 31.932 31.932 32.41 31.932 33C31.932 33.59 32.41 34.068 33 34Z" fill="#3055D0"/>
</svg>
