<svg width="64" height="64" viewBox="0 0 64 64" fill="none" xmlns="http://www.w3.org/2000/svg">
<path d="M32 64C49.644 64 64 49.644 64 32C64 14.356 49.644 0 32 0C14.356 0 0 14.356 0 32C0 49.644 14.356 64 32 64ZM32 2C48.542 2 62 15.458 62 32C62 48.542 48.542 62 32 62C15.458 62 2 48.542 2 32C2 15.458 15.458 2 32 2Z" fill="#3055D0"/>
<path d="M40.122 43.5359C40.2146 43.6295 40.3249 43.7039 40.4464 43.7546C40.5679 43.8053 40.6983 43.8314 40.83 43.8314C40.9617 43.8314 41.0921 43.8053 41.2136 43.7546C41.3351 43.7039 41.4454 43.6295 41.538 43.5359C41.7255 43.3484 41.8308 43.0941 41.8308 42.8289C41.8308 42.5638 41.7255 42.3095 41.538 42.1219L32 32.5859V18.6379C32 18.3727 31.8946 18.1184 31.7071 17.9308C31.5196 17.7433 31.2652 17.6379 31 17.6379C30.7348 17.6379 30.4804 17.7433 30.2929 17.9308C30.1054 18.1184 30 18.3727 30 18.6379V32.9999C30 33.2659 30.106 33.5199 30.292 33.7079L40.122 43.5359Z" fill="#3055D0"/>
<path d="M8 34C9.10457 34 10 33.1046 10 32C10 30.8954 9.10457 30 8 30C6.89543 30 6 30.8954 6 32C6 33.1046 6.89543 34 8 34Z" fill="#3055D0"/>
<path d="M56 34C57.1046 34 58 33.1046 58 32C58 30.8954 57.1046 30 56 30C54.8954 30 54 30.8954 54 32C54 33.1046 54.8954 34 56 34Z" fill="#3055D0"/>
<path d="M32 10C33.1046 10 34 9.10457 34 8C34 6.89543 33.1046 6 32 6C30.8954 6 30 6.89543 30 8C30 9.10457 30.8954 10 32 10Z" fill="#3055D0"/>
<path d="M32 58C33.1046 58 34 57.1046 34 56C34 54.8954 33.1046 54 32 54C30.8954 54 30 54.8954 30 56C30 57.1046 30.8954 58 32 58Z" fill="#3055D0"/>
<path d="M16 18C17.1046 18 18 17.1046 18 16C18 14.8954 17.1046 14 16 14C14.8954 14 14 14.8954 14 16C14 17.1046 14.8954 18 16 18Z" fill="#3055D0"/>
<path d="M48 50C49.1046 50 50 49.1046 50 48C50 46.8954 49.1046 46 48 46C46.8954 46 46 46.8954 46 48C46 49.1046 46.8954 50 48 50Z" fill="#3055D0"/>
<path d="M50 18C51.1046 18 52 17.1046 52 16C52 14.8954 51.1046 14 50 14C48.8954 14 48 14.8954 48 16C48 17.1046 48.8954 18 50 18Z" fill="#3055D0"/>
<path d="M16 50C17.1046 50 18 49.1046 18 48C18 46.8954 17.1046 46 16 46C14.8954 46 14 46.8954 14 48C14 49.1046 14.8954 50 16 50Z" fill="#3055D0"/>
</svg>
