<svg width="65" height="64" viewBox="0 0 65 64" fill="none" xmlns="http://www.w3.org/2000/svg">
<path d="M58.5 35.036C58.5 34.7708 58.3946 34.5164 58.2071 34.3289C58.0196 34.1414 57.7652 34.036 57.5 34.036H30.5V7C30.5 6.73478 30.3946 6.48043 30.2071 6.29289C30.0196 6.10536 29.7652 6 29.5 6C13.51 6 0.5 18.99 0.5 34.958C0.5 51.514 12.986 64 29.542 64C44.968 64 58.5 50.464 58.5 35.036ZM2.5 34.958C2.5 20.426 14.074 8.546 28.5 8.018V35.036C28.5 35.588 28.948 36.036 29.5 36H56.48C55.914 49.98 43.57 62 29.542 62C14.126 62 2.5 50.376 2.5 34.958Z" fill="#3055D0"/>
<path d="M35.5 30H63.498C64.05 30.036 64.5 29.552 64.5 29C64.5 13.01 51.49 0 35.5 0C35.2348 0 34.9804 0.105357 34.7929 0.292893C34.6054 0.48043 34.5 0.734784 34.5 1V29.036C34.5 29.588 34.948 30.036 35.5 30ZM36.5 2.018C50.626 2.536 62.018 13.958 62.488 28.036H36.5V2.018Z" fill="#3055D0"/>
</svg>
