<svg width="64" height="64" viewBox="0 0 64 64" fill="none" xmlns="http://www.w3.org/2000/svg">
<path d="M21 0.5C9.42 0.5 0 9.77281 0 21.1719C0 32.5709 9.42 41.8438 21 41.8438C26.45 41.8438 31.406 39.7726 35.142 36.41C35.186 36.4868 35.226 36.5675 35.294 36.6344L39.596 40.8692C39.1387 41.6168 38.95 42.4941 39.0603 43.36C39.1705 44.2258 39.5734 45.0301 40.204 45.6434L57.174 62.3483C57.928 63.0905 58.932 63.5 60 63.5C61.068 63.5 62.072 63.0905 62.828 62.3463C63.584 61.6021 64 60.6138 64 59.5625C64 58.5112 63.584 57.5229 62.828 56.7787L45.858 40.0738C44.59 38.8257 42.54 38.6386 41.018 39.4852L36.708 35.2425C36.64 35.1756 36.56 35.1362 36.48 35.0929C40.0279 31.2979 41.998 26.3293 42 21.1719C42 9.77281 32.58 0.5 21 0.5ZM44.444 41.4658L61.414 58.1706C61.792 58.5427 62 59.0368 62 59.5625C62 60.0882 61.792 60.5823 61.414 60.9544C61.0328 61.3119 60.5265 61.5113 60 61.5113C59.4735 61.5113 58.9672 61.3119 58.586 60.9544L41.616 44.2496C41.4296 44.0672 41.2817 43.8503 41.1808 43.6114C41.0799 43.3725 41.0279 43.1164 41.0279 42.8577C41.0279 42.5989 41.0799 42.3428 41.1808 42.1039C41.2817 41.865 41.4296 41.6482 41.616 41.4658C41.8013 41.2823 42.0216 41.1367 42.2643 41.0374C42.507 40.938 42.7672 40.8869 43.03 40.8869C43.2928 40.8869 43.553 40.938 43.7957 41.0374C44.0384 41.1367 44.2587 41.2823 44.444 41.4658ZM21 39.875C10.524 39.875 2 31.4842 2 21.1719C2 10.8596 10.524 2.46875 21 2.46875C31.476 2.46875 40 10.8596 40 21.1719C40 31.4842 31.476 39.875 21 39.875Z" fill="#3055D0"/>
</svg>
