<svg width="84" height="64" viewBox="0 0 84 64" fill="none" xmlns="http://www.w3.org/2000/svg">
<path d="M7.384 43.44C7.736 43.524 8.214 43.958 8.352 44.354L9.052 46.042C9.21 46.366 9.18 47.008 8.992 47.316L6.198 51.884C5.6 52.864 5.724 54.252 6.528 55.152L8.894 57.516C9.718 58.248 11.172 58.38 12.12 57.806L16.688 55.012C16.974 54.836 17.588 54.774 18.018 54.976L19.704 55.672C20.044 55.79 20.478 56.266 20.562 56.618L21.816 61.826C22.082 62.93 23.136 63.838 24.268 63.942C24.268 63.942 24.962 64.006 26.002 64.006C27.042 64.006 27.736 63.942 27.738 63.942C28.311 63.8744 28.8507 63.6367 29.2874 63.2596C29.724 62.8824 30.0377 62.3831 30.188 61.826L31.444 56.618C31.528 56.268 31.96 55.79 32.356 55.652L34.044 54.952C34.342 54.806 35.032 54.836 35.318 55.012L39.886 57.806C40.288 58.052 40.768 58.182 41.278 58.182C41.968 58.182 42.636 57.94 43.154 57.478L45.518 55.112C45.8928 54.6697 46.1218 54.1223 46.1737 53.5449C46.2256 52.9675 46.0979 52.3881 45.808 51.886L43.014 47.318C42.826 47.01 42.796 46.368 42.978 45.988L43.674 44.302C43.792 43.962 44.268 43.528 44.62 43.444L49.828 42.19C50.3851 42.0391 50.8843 41.725 51.2614 41.288C51.6385 40.851 51.8763 40.3112 51.944 39.738C51.944 39.738 52.008 39.044 52.008 38.004C52.008 36.964 51.944 36.27 51.944 36.268C51.876 35.6949 51.6382 35.1552 51.2611 34.7183C50.8841 34.2813 50.385 33.9671 49.828 33.816L44.622 32.564C44.27 32.48 43.792 32.046 43.654 31.65L42.954 29.962C42.796 29.638 42.826 28.996 43.014 28.688L45.808 24.12C46.406 23.14 46.282 21.752 45.478 20.852L43.112 18.488C42.286 17.754 40.83 17.622 39.886 18.198L35.318 20.992C35.032 21.166 34.416 21.232 33.988 21.028L32.302 20.332C31.962 20.214 31.53 19.738 31.446 19.386L30.19 14.178C30.0391 13.6209 29.725 13.1217 29.288 12.7446C28.851 12.3675 28.3112 12.1297 27.738 12.062C27.734 12.064 27.04 12 26 12C24.96 12 24.266 12.064 24.264 12.064C23.6909 12.132 23.1512 12.3698 22.7143 12.7469C22.2773 13.1239 21.9631 13.623 21.812 14.18L20.56 19.384C20.476 19.736 20.042 20.214 19.646 20.352L17.958 21.052C17.658 21.198 16.97 21.166 16.684 20.992L12.118 18.198C11.172 17.622 9.748 17.722 8.85 18.526L6.486 20.892C6.11123 21.3343 5.88223 21.8817 5.83032 22.4591C5.77841 23.0365 5.90613 23.6159 6.196 24.118L8.99 28.686C9.178 28.994 9.208 29.636 9.026 30.016L8.33 31.702C8.212 32.042 7.736 32.476 7.384 32.56L2.176 33.814C1.61888 33.9649 1.11965 34.279 0.742556 34.716C0.36546 35.153 0.127745 35.6928 0.06 36.266C0.064 36.266 0 36.96 0 38C0 39.04 0.064 39.734 0.064 39.736C0.132006 40.3091 0.369813 40.8488 0.746869 41.2857C1.12393 41.7227 1.62301 42.0369 2.18 42.188L7.384 43.44ZM2 38C2 37.084 2.054 36.466 2.056 36.446C2.08787 36.2904 2.15898 36.1455 2.26259 36.0251C2.3662 35.9047 2.49887 35.8127 2.648 35.758L7.856 34.504C8.866 34.26 9.884 33.336 10.2 32.41L10.848 30.836C11.304 29.902 11.24 28.53 10.698 27.642L7.904 23.076C7.77 22.854 7.808 22.414 7.94 22.264L10.222 19.98C10.404 19.818 10.868 19.778 11.076 19.904L15.644 22.698C16.51 23.228 17.994 23.264 18.78 22.874L20.356 22.222C21.338 21.884 22.262 20.866 22.506 19.854L23.758 14.648C23.8123 14.4984 23.904 14.3652 24.0245 14.2612C24.1449 14.1572 24.2901 14.0859 24.446 14.054C24.466 14.054 25.084 14 26 14C26.916 14 27.534 14.054 27.554 14.056C27.7096 14.0879 27.8545 14.159 27.9749 14.2626C28.0953 14.3662 28.1873 14.4989 28.242 14.648L29.496 19.854C29.74 20.864 30.662 21.884 31.59 22.2L33.164 22.848C34.078 23.296 35.494 23.226 36.358 22.698L40.924 19.904C41.132 19.778 41.624 19.844 41.736 19.94L44.02 22.222C44.192 22.416 44.23 22.854 44.096 23.076L41.302 27.644C40.76 28.53 40.696 29.904 41.126 30.78L41.778 32.356C42.116 33.338 43.134 34.262 44.146 34.506L49.352 35.758C49.5016 35.8123 49.6348 35.904 49.7388 36.0245C49.8428 36.1449 49.9141 36.2901 49.946 36.446C49.946 36.466 50 37.084 50 38C50 38.916 49.946 39.534 49.944 39.554C49.9121 39.7096 49.841 39.8545 49.7374 39.9749C49.6338 40.0953 49.5011 40.1873 49.352 40.242L44.144 41.496C43.134 41.74 42.116 42.664 41.8 43.59L41.152 45.164C40.696 46.098 40.76 47.47 41.302 48.358L44.096 52.924C44.23 53.146 44.192 53.586 44.06 53.736L41.778 56.02C41.6334 56.1281 41.4564 56.1838 41.276 56.178C41.1541 56.182 41.0334 56.1537 40.926 56.096L36.358 53.302C35.494 52.774 34.01 52.736 33.222 53.126L31.646 53.778C30.664 54.116 29.74 55.136 29.498 56.146L28.244 61.352C28.1897 61.5016 28.098 61.6348 27.9775 61.7388C27.8571 61.8428 27.7119 61.9141 27.556 61.946C27.534 61.946 26.916 62 26 62C25.084 62 24.466 61.946 24.446 61.944C24.2904 61.9121 24.1455 61.841 24.0251 61.7374C23.9047 61.6338 23.8127 61.5011 23.758 61.352L22.504 56.144C22.26 55.134 21.336 54.116 20.41 53.8L18.836 53.152C18.3884 52.9439 17.8995 52.84 17.406 52.848C16.748 52.848 16.122 53.01 15.642 53.304L11.076 56.098C10.868 56.224 10.374 56.156 10.264 56.062L7.98 53.778C7.808 53.584 7.77 53.146 7.904 52.924L10.698 48.356C11.24 47.47 11.304 46.096 10.874 45.22L10.222 43.644C9.884 42.662 8.866 41.738 7.854 41.494L2.648 40.242C2.4984 40.1877 2.36522 40.096 2.26122 39.9755C2.15722 39.8551 2.08587 39.7099 2.054 39.554C2.054 39.534 2 38.916 2 38Z" fill="#3055D0"/>
<path d="M26 48.9999C32.066 48.9999 37 44.0659 37 37.9999C37 31.9339 32.066 26.9999 26 26.9999C19.934 26.9999 15 31.9339 15 37.9999C15 44.0659 19.934 48.9999 26 48.9999ZM26 28.9999C30.962 28.9999 35 33.0379 35 37.9999C35 42.9619 30.962 46.9999 26 46.9999C21.038 46.9999 17 42.9619 17 37.9999C17 33.0379 21.038 28.9999 26 28.9999ZM54.954 10.6279C54.8197 10.7786 54.636 10.8765 54.436 10.9039L50.714 10.8679C50.2547 10.8801 49.8093 11.0284 49.4344 11.294C49.0594 11.5596 48.7718 11.9306 48.608 12.3599C48.608 12.3599 48.444 12.8259 48.264 13.5399C48.084 14.2539 48.008 14.7419 48.008 14.7419C47.868 15.6439 48.37 16.6419 49.176 17.0639L52.458 18.7839C52.6339 18.9172 52.7526 19.1124 52.79 19.3299L52.976 20.5999C52.9878 20.8005 52.9283 20.9989 52.808 21.1599L50.164 23.7519C49.502 24.3999 49.328 25.5079 49.784 26.3779L50.982 28.3779C51.488 29.1219 52.584 29.5019 53.444 29.2339L57.092 28.1179C57.29 28.1179 57.488 28.1939 57.6 28.2839L58.63 29.0439C58.7799 29.1788 58.8776 29.3622 58.906 29.5619L58.87 33.2659C58.862 34.1779 59.502 35.0919 60.362 35.3919C60.362 35.3919 60.828 35.5559 61.542 35.7359C62.256 35.9159 62.744 35.9919 62.744 35.9919C62.796 35.9999 63.004 36.0159 63.056 36.0159C63.4661 36.0108 63.8677 35.898 64.2205 35.6888C64.5732 35.4796 64.8648 35.1813 65.066 34.8239L66.786 31.5419C66.9193 31.366 67.1145 31.2473 67.332 31.2099L68.658 31.0179C68.858 31.0179 69.094 31.1219 69.16 31.1899L71.752 33.8339C72.382 34.4779 73.444 34.7079 74.378 34.2139L76.376 33.0159C77.14 32.4959 77.51 31.4359 77.234 30.5539L76.13 27.0199C76.1005 26.8002 76.1563 26.5776 76.286 26.3979L77.046 25.3679C77.1803 25.2172 77.364 25.1193 77.564 25.0919L81.286 25.1279C81.7453 25.1157 82.1907 24.9674 82.5656 24.7018C82.9406 24.4362 83.2282 24.0652 83.392 23.6359C83.392 23.6359 83.556 23.1699 83.736 22.4559C83.916 21.7419 83.992 21.2539 83.992 21.2539C84.0514 20.7945 83.9719 20.3278 83.7637 19.914C83.5555 19.5001 83.2283 19.1581 82.824 18.9319L79.542 17.2119C79.3661 17.0786 79.2474 16.8834 79.21 16.6659L79.026 15.3999C79.0142 15.1992 79.0737 15.0009 79.194 14.8399L81.838 12.2479C82.5 11.5999 82.674 10.4919 82.218 9.62189L81.02 7.62189C80.514 6.87989 79.42 6.49589 78.558 6.76389L74.908 7.87989C74.7254 7.87963 74.5475 7.82152 74.4 7.71389L73.37 6.95389C73.2201 6.81893 73.1224 6.63558 73.094 6.43589L73.13 2.73189C73.1223 2.26898 72.976 1.81901 72.7101 1.44006C72.4441 1.0611 72.0707 0.77054 71.638 0.605887C71.638 0.605887 71.172 0.441887 70.458 0.261887C69.744 0.0818867 69.256 0.00588672 69.256 0.00588672C69.1522 -0.00442999 69.0482 -0.0117663 68.944 -0.0161133C68.5339 -0.0110049 68.1323 0.101806 67.7795 0.311013C67.4268 0.520221 67.1352 0.818476 66.934 1.17589L65.214 4.45789C65.0807 4.63381 64.8855 4.75249 64.668 4.78989L63.342 4.97989C63.1609 4.97596 62.9855 4.91586 62.84 4.80789L60.248 2.16389C59.9092 1.82681 59.4709 1.60782 58.9979 1.53938C58.5249 1.47094 58.0424 1.55667 57.622 1.78389L55.622 2.97989C54.858 3.49989 54.488 4.55989 54.764 5.44189L55.868 8.97589C55.8975 9.19554 55.8417 9.41815 55.712 9.59789L54.954 10.6279ZM56.594 11.7719L57.28 10.8399C57.816 10.2059 58.024 9.17189 57.776 8.38189L56.674 4.84989C56.664 4.79389 56.708 4.66789 56.698 4.66589L58.594 3.52989L58.82 3.56389L61.414 6.20789C61.874 6.67589 62.632 6.97989 63.344 6.97989C63.481 6.98204 63.6178 6.9693 63.752 6.94189L64.902 6.77189C65.3339 6.71949 65.7476 6.56665 66.1098 6.32562C66.4721 6.08459 66.7728 5.76206 66.988 5.38389L68.706 2.10389C68.7678 2.03452 68.8535 1.99097 68.946 1.98189C68.968 1.98389 69.376 2.05189 69.972 2.19989C70.566 2.34989 70.958 2.48389 70.976 2.49189C71.038 2.51789 71.128 2.64789 71.132 2.71189L71.096 6.41589C71.088 7.24389 71.586 8.17389 72.23 8.59389L73.16 9.27989C73.778 9.80189 74.838 10.0219 75.618 9.77589L79.166 8.67189C79.25 8.67189 79.344 8.72389 79.332 8.69789L80.468 10.5939C80.49 10.6459 80.468 10.7779 80.434 10.8199L77.79 13.4139C77.2 13.9959 76.894 15.0039 77.056 15.7519L77.224 16.9019C77.296 17.7259 77.88 18.6039 78.614 18.9879L81.894 20.7059C81.9627 20.7682 82.0062 20.8536 82.016 20.9459C81.9574 21.2907 81.8846 21.633 81.798 21.9719C81.7151 22.3106 81.6176 22.6456 81.506 22.9759C81.48 23.0379 81.35 23.1279 81.286 23.1319L77.562 23.0959C76.74 23.0959 75.82 23.5939 75.404 24.2299L74.72 25.1599C74.45 25.5018 74.2644 25.9025 74.1782 26.3296C74.092 26.7567 74.1077 27.198 74.224 27.6179L75.326 31.1499C75.336 31.2039 75.292 31.3319 75.302 31.3339L73.406 32.4699L73.18 32.4359L70.586 29.7919C70.126 29.3239 69.368 29.0199 68.656 29.0199C68.519 29.0177 68.3822 29.0305 68.248 29.0579L67.098 29.2279C66.6661 29.2803 66.2524 29.4331 65.8902 29.6742C65.5279 29.9152 65.2272 30.2377 65.012 30.6159L63.294 33.8959C63.2322 33.9652 63.1465 34.0088 63.054 34.0179C62.7092 33.9593 62.3669 33.8865 62.028 33.7999C61.6893 33.717 61.3543 33.6195 61.024 33.5079C60.962 33.4819 60.872 33.3519 60.868 33.2879L60.904 29.5839C60.912 28.7559 60.414 27.8259 59.77 27.4059L58.84 26.7199C58.4978 26.4497 58.0967 26.264 57.6693 26.1778C57.2419 26.0916 56.8002 26.1074 56.38 26.2239L52.832 27.3279C52.746 27.3279 52.652 27.2819 52.666 27.3019L51.53 25.4059C51.508 25.3539 51.53 25.2219 51.564 25.1799L54.208 22.5859C54.798 22.0039 55.104 20.9959 54.942 20.2479L54.774 19.0999C54.7215 18.6677 54.5685 18.2539 54.3271 17.8916C54.0857 17.5293 53.7627 17.2287 53.384 17.0139L50.104 15.2959C50.0353 15.2336 49.9918 15.1481 49.982 15.0559C49.984 15.0339 50.052 14.6259 50.2 14.0299C50.35 13.4359 50.484 13.0439 50.492 13.0259C50.518 12.9639 50.648 12.8739 50.712 12.8699L54.436 12.9059C55.258 12.9059 56.178 12.4079 56.594 11.7719Z" fill="#3055D0"/>
<path d="M66 24C69.308 24 72 21.308 72 18C72 14.692 69.308 12 66 12C62.692 12 60 14.692 60 18C60 21.308 62.692 24 66 24ZM66 14C68.206 14 70 15.794 70 18C70 20.206 68.206 22 66 22C63.794 22 62 20.206 62 18C62 15.794 63.794 14 66 14Z" fill="#3055D0"/>
</svg>
