<svg width="37" height="37" viewBox="0 0 37 37" fill="none" xmlns="http://www.w3.org/2000/svg">
<path opacity="0.1" fill-rule="evenodd" clip-rule="evenodd" d="M18.5 36C28.165 36 36 28.165 36 18.5C36 8.83502 28.165 1 18.5 1C8.83502 1 1 8.83502 1 18.5C1 28.165 8.83502 36 18.5 36Z" stroke="black" stroke-width="1.5"/>
<path d="M22.333 14.6665C23.6591 14.6665 24.9309 15.1933 25.8685 16.131C26.8062 17.0687 27.333 18.3404 27.333 19.6665V25.4998H23.9997V19.6665C23.9997 19.2245 23.8241 18.8006 23.5115 18.488C23.199 18.1754 22.775 17.9998 22.333 17.9998C21.891 17.9998 21.4671 18.1754 21.1545 18.488C20.8419 18.8006 20.6663 19.2245 20.6663 19.6665V25.4998H17.333V19.6665C17.333 18.3404 17.8598 17.0687 18.7975 16.131C19.7352 15.1933 21.0069 14.6665 22.333 14.6665Z" fill="#424242"/>
<path d="M14.0003 15.5H10.667V25.5H14.0003V15.5Z" fill="#424242"/>
<path d="M12.3337 12.9998C13.2541 12.9998 14.0003 12.2536 14.0003 11.3332C14.0003 10.4127 13.2541 9.6665 12.3337 9.6665C11.4132 9.6665 10.667 10.4127 10.667 11.3332C10.667 12.2536 11.4132 12.9998 12.3337 12.9998Z" fill="#424242"/>
</svg>
