<svg width="37" height="37" viewBox="0 0 37 37" fill="none" xmlns="http://www.w3.org/2000/svg">
<path opacity="0.1" fill-rule="evenodd" clip-rule="evenodd" d="M18.5 36C28.165 36 36 28.165 36 18.5C36 8.83502 28.165 1 18.5 1C8.83502 1 1 8.83502 1 18.5C1 28.165 8.83502 36 18.5 36Z" stroke="black" stroke-width="1.5"/>
<path d="M23.9997 9.6665H21.4997C20.3946 9.6665 19.3348 10.1055 18.5534 10.8869C17.772 11.6683 17.333 12.7281 17.333 13.8332V16.3332H14.833V19.6665H17.333V26.3332H20.6663V19.6665H23.1663L23.9997 16.3332H20.6663V13.8332C20.6663 13.6122 20.7541 13.4002 20.9104 13.2439C21.0667 13.0876 21.2787 12.9998 21.4997 12.9998H23.9997V9.6665Z" fill="#424242"/>
</svg>
