<svg width="166" height="33" viewBox="0 0 166 33" fill="none" xmlns="http://www.w3.org/2000/svg">
<path d="M0.97 24.26C0.32 23.64 0 22.82 0 21.82V0H19.22V4.32H4.97V10.15H18.15V14.47H4.97V20.88H19.23V25.2H3.49C2.46 25.2 1.62 24.89 0.97 24.26Z" fill="#DE8365"/>
<path d="M23.2603 24.08C22.1103 23.14 21.5303 21.91 21.5303 20.37V19.04C21.5303 17.53 22.1303 16.31 23.3303 15.39C24.5303 14.47 26.1103 14 28.0803 14H30.2803C30.9003 14 31.5803 14.08 32.3003 14.25C33.0203 14.42 33.6803 14.65 34.2803 14.93V13.06C34.2803 12.46 34.0803 11.97 33.6903 11.6C33.3003 11.23 32.7703 11.04 32.1203 11.04H29.0203C28.3503 11.04 27.8103 11.2 27.4003 11.51C26.9903 11.82 26.7903 12.24 26.7903 12.77H22.0403C22.0403 11.02 22.6803 9.61 23.9703 8.54C25.2503 7.47 26.9403 6.94 29.0303 6.94H32.1303C34.2403 6.94 35.9503 7.5 37.2403 8.61C38.5403 9.73 39.1803 11.21 39.1803 13.06V25.2H34.6403V23.04C34.0603 23.78 33.3603 24.38 32.5203 24.82C31.6803 25.26 30.8503 25.49 30.0403 25.49H27.8103C25.9203 25.49 24.4103 25.02 23.2603 24.08ZM30.3803 21.74C31.2703 21.74 32.0603 21.51 32.7603 21.06C33.4603 20.6 33.9603 19.99 34.2703 19.22V18.61C33.8903 18.32 33.3503 18.09 32.6703 17.93C31.9903 17.76 31.2603 17.68 30.4903 17.68H28.2203C27.6403 17.68 27.1803 17.82 26.8203 18.11C26.4603 18.4 26.2803 18.78 26.2803 19.26V20.2C26.2803 20.66 26.4803 21.03 26.8703 21.32C27.2703 21.61 27.7903 21.75 28.4403 21.75H30.3803V21.74Z" fill="#DE8365"/>
<path d="M41.4697 22.75L51.1897 11.37H41.8997V7.23999H58.1697V9.68999L48.4497 21.07H57.9997V25.21H41.4697V22.75Z" fill="#DE8365"/>
<path d="M62.87 30.87C61.61 29.78 60.91 28.34 60.76 26.57H65.58C65.63 27.1 65.84 27.52 66.23 27.85C66.62 28.18 67.09 28.34 67.67 28.34H70.62C71.36 28.34 71.97 28.03 72.44 27.42C72.91 26.81 73.14 26.01 73.14 25.03V22.69C72.59 23.43 71.96 24.02 71.25 24.44C70.54 24.86 69.84 25.07 69.14 25.07H66.76C64.86 25.07 63.34 24.44 62.19 23.18C61.04 21.92 60.46 20.25 60.46 18.16V7.23999H65.36V18.22C65.36 19.01 65.56 19.65 65.95 20.15C66.35 20.64 66.87 20.89 67.52 20.89H69.61C70.4 20.89 71.12 20.56 71.77 19.9C72.42 19.24 72.87 18.37 73.14 17.29V7.23999H78.04V25.02C78.04 26.51 77.73 27.82 77.12 28.94C76.51 30.07 75.64 30.94 74.51 31.57C73.38 32.19 72.09 32.51 70.62 32.51H67.67C65.74 32.51 64.13 31.96 62.87 30.87Z" fill="#DE8365"/>
<path d="M83.3401 24.26C82.6901 23.64 82.3701 22.82 82.3701 21.81V0H94.3901C96.3101 0 98.0001 0.36 99.4501 1.08C100.9 1.8 102.03 2.82 102.83 4.14C103.63 5.46 104.04 6.98 104.04 8.71V15.77C104.04 18.87 103.24 21.21 101.63 22.81C100.02 24.41 97.6601 25.2 94.5401 25.2H85.8601C84.8301 25.2 83.9901 24.89 83.3401 24.26ZM94.3901 20.81C95.9301 20.81 97.0901 20.37 97.8801 19.48C98.6701 18.59 99.0701 17.28 99.0701 15.56V8.93C99.0701 7.56 98.6301 6.46 97.7401 5.64C96.8501 4.81 95.6901 4.4 94.2501 4.4H87.3401V20.82H94.3901V20.81Z" fill="#DE8365"/>
<path d="M110.43 24.61C109.27 24.02 108.37 23.19 107.73 22.11C107.09 21.03 106.78 19.78 106.78 18.37V14.16C106.78 12.74 107.1 11.49 107.75 10.4C108.4 9.30999 109.3 8.45999 110.47 7.85999C111.63 7.25999 112.97 6.95999 114.48 6.95999H117.72C119.23 6.95999 120.57 7.25999 121.73 7.85999C122.89 8.45999 123.8 9.30999 124.45 10.4C125.1 11.49 125.42 12.75 125.42 14.16V18.37C125.42 19.79 125.1 21.03 124.45 22.11C123.8 23.19 122.9 24.02 121.73 24.61C120.57 25.2 119.22 25.49 117.68 25.49H114.44C112.93 25.49 111.59 25.19 110.43 24.61ZM117.61 21.28C118.5 21.28 119.21 20.97 119.73 20.36C120.26 19.75 120.52 18.95 120.52 17.97V14.48C120.52 13.5 120.26 12.7 119.73 12.09C119.2 11.48 118.51 11.17 117.64 11.17H114.54C113.68 11.17 112.98 11.48 112.45 12.09C111.92 12.7 111.66 13.5 111.66 14.48V17.97C111.66 18.95 111.92 19.75 112.45 20.36C112.98 20.97 113.66 21.28 114.5 21.28H117.61Z" fill="#DE8365"/>
<path d="M131.81 24.59C130.65 23.99 129.75 23.15 129.11 22.07C128.47 20.99 128.16 19.74 128.16 18.33V14.12C128.16 12.7 128.48 11.46 129.11 10.38C129.74 9.29999 130.64 8.45999 131.79 7.85999C132.94 7.25999 134.27 6.95999 135.79 6.95999H138.63C140.07 6.95999 141.34 7.24999 142.45 7.81999C143.55 8.39999 144.41 9.20999 145.01 10.25C145.61 11.29 145.91 12.5 145.91 13.87H141.05C141.05 13.05 140.83 12.4 140.38 11.91C139.94 11.42 139.35 11.17 138.63 11.17H135.86C135.02 11.17 134.34 11.48 133.83 12.09C133.31 12.7 133.06 13.5 133.06 14.48V17.97C133.06 18.95 133.32 19.75 133.85 20.36C134.38 20.97 135.06 21.28 135.9 21.28H138.67C139.44 21.28 140.06 21 140.52 20.45C140.99 19.9 141.22 19.17 141.22 18.25H146.08C146.08 20.43 145.4 22.19 144.05 23.51C142.69 24.83 140.9 25.49 138.67 25.49H135.83C134.32 25.49 132.98 25.19 131.81 24.59Z" fill="#DE8365"/>
<path d="M150.16 23.76C148.84 22.61 148.18 21.1 148.18 19.22H153C153 19.87 153.22 20.39 153.67 20.79C154.11 21.19 154.7 21.38 155.42 21.38H158.66C160.1 21.38 160.82 20.98 160.82 20.19V19.58C160.82 19.34 160.7 19.12 160.46 18.91C160.22 18.71 159.9 18.57 159.49 18.5L153.26 17.42C151.8 17.18 150.64 16.66 149.79 15.85C148.94 15.05 148.51 14.1 148.51 13.02V11.83C148.51 10.29 149.14 9.08999 150.4 8.22999C151.66 7.36999 153.42 6.92999 155.67 6.92999H158.48C160.5 6.92999 162.12 7.45999 163.36 8.52999C164.6 9.59999 165.21 11.01 165.21 12.76H160.39C160.39 12.23 160.22 11.81 159.87 11.5C159.52 11.19 159.06 11.03 158.48 11.03H155.74C154.18 11.03 153.4 11.39 153.4 12.11V12.69C153.4 12.95 153.5 13.18 153.71 13.36C153.91 13.54 154.21 13.67 154.59 13.74L161.14 14.93C162.51 15.17 163.61 15.68 164.45 16.46C165.29 17.24 165.71 18.12 165.71 19.11V20.41C165.71 21.97 165.07 23.21 163.78 24.12C162.5 25.03 160.79 25.49 158.65 25.49H155.41C153.23 25.49 151.47 24.91 150.16 23.76Z" fill="#DE8365"/>
</svg>
