<svg width="23" height="23" viewBox="0 0 23 23" fill="none" xmlns="http://www.w3.org/2000/svg">
<path d="M11.7591 1.35563L14.2828 7.11188C14.3778 7.32851 14.5291 7.51569 14.721 7.65388C14.913 7.79207 15.1385 7.8762 15.3741 7.8975L21.5222 8.44875C22.2178 8.55 22.4953 9.40312 21.9909 9.89437L17.3597 13.785C16.9847 14.1 16.8141 14.595 16.9172 15.0731L18.2634 21.375C18.3816 22.0669 17.6559 22.5956 17.0334 22.2675L11.6672 19.125C11.4648 19.0062 11.2344 18.9436 10.9997 18.9436C10.765 18.9436 10.5346 19.0062 10.3322 19.125L4.96595 22.2656C4.34532 22.5919 3.61782 22.065 3.73595 21.3731L5.0822 15.0712C5.18345 14.5931 5.0147 14.0981 4.6397 13.7831L0.0065721 9.89625C-0.495928 9.40687 -0.218428 8.55188 0.475322 8.45062L6.62345 7.89937C6.85901 7.87808 7.08453 7.79395 7.27648 7.65576C7.46843 7.51756 7.61977 7.33038 7.7147 7.11375L10.2384 1.3575C10.5516 0.7275 11.4478 0.7275 11.7591 1.35563Z" fill="#FDD835"/>
</svg>
